<svg width="75" height="75" viewBox="0 0 75 75" fill="none" xmlns="http://www.w3.org/2000/svg">
<path d="M37.05 15.8999C39 17.9999 40.05 20.6999 40.05 23.6999C40.05 29.9999 34.8 34.9499 28.65 34.9499C27.3 34.9499 26.1 34.6499 24.9 34.1999C27 36.4499 29.85 37.7999 33.15 37.9499C39.45 37.9499 44.55 32.9999 44.55 26.6999C44.7 21.7499 41.55 17.5499 37.05 15.8999Z" fill="#4DE0F9"/>
<path d="M31.8 37.2C31.65 37.2 31.65 37.2 31.8 37.2C24.9 37.05 19.5 31.65 19.5 24.9C19.5 21.6 20.85 18.6 23.25 16.35C25.5 14.1 28.5 12.75 31.8 12.75H31.95C35.25 12.75 38.25 14.1 40.5 16.5C42.75 18.9 43.95 21.9 43.95 25.2C43.95 31.8 38.4 37.2 31.8 37.2ZM31.8 14.55C26.1 14.55 21.45 19.2 21.3 24.9C21.3 30.6 25.8 35.4 31.65 35.4H31.8C37.5 35.4 42.15 30.75 42.3 25.05C42.3 22.2 41.25 19.65 39.3 17.7C37.2 15.75 34.65 14.7 31.8 14.55Z" fill="#0D5FC3"/>
<path d="M36 58.2H26.4V61.2H36V58.2Z" fill="#4DE0F9"/>
<path d="M33.75 60.6H15.6V54.75C15.6 45.9 22.8 38.55 31.8 38.55C34.5 38.55 37.35 39.3 39.75 40.65L38.85 42.15C36.75 40.95 34.35 40.35 31.8 40.35C23.85 40.35 17.4 46.8 17.4 54.75V58.8H33.75V60.6Z" fill="#0D5FC3"/>
<path d="M58.8 45.75V58.2H46.95V61.2H61.8V45.75H58.8Z" fill="#4DE0F9"/>
<path d="M54.15 45.75L46.8 50.4L37.65 45.75H37.5L49.65 53.4L61.8 45.75H54.15Z" fill="#4DE0F9"/>
<path d="M61.2 60.6001H35.1V43.3501H61.2V60.6001ZM36.9 58.8001H59.4V45.1501H36.9V58.8001Z" fill="#0D5FC3"/>
<path d="M48.15 52.95L35.55 45L36.45 43.5L48.15 50.85L59.85 43.5L60.75 45L48.15 52.95Z" fill="#0D5FC3"/>
</svg>
