<svg width="38" height="42" viewBox="0 0 38 42" fill="none" xmlns="http://www.w3.org/2000/svg">
<g clip-path="url(#clip0_34_1532)">
<path d="M18.9781 40.9484L4.24934 36.9235L0.967041 0.685669H37.0332L33.7475 36.918L18.9781 40.9484Z" fill="#264DE4"/>
<path d="M30.9346 34.6108L33.7423 3.64856H19.0001V37.8676L30.9346 34.6108Z" fill="#2965F1"/>
<path d="M8.49153 17.0887L8.89615 21.5332H19.0001V17.0887H8.49153ZM7.67834 8.09314L8.08876 12.5376H19.0001V8.09314H7.67834ZM19.0001 28.6314L18.9803 28.6366L13.9519 27.3L13.6304 23.7554H9.09789L9.7304 30.7339L18.9793 33.2611L19.0001 33.2555V28.6314Z" fill="#EBEBEB"/>
<path d="M29.4798 17.0887L30.2948 8.09314H18.9845V12.5376H25.3467L24.9358 17.0887H18.9845V21.5332H24.5444L24.0202 27.2973L18.9844 28.6352V33.259L28.2406 30.7339L28.3085 29.983L29.3696 18.2822L29.4798 17.0887Z" fill="white"/>
</g>
<defs>
<clipPath id="clip0_34_1532">
<rect width="36.195" height="40.6685" fill="white" transform="translate(0.902588 0.406738)"/>
</clipPath>
</defs>
</svg>