<svg width="75" height="75" viewBox="0 0 75 75" fill="none" xmlns="http://www.w3.org/2000/svg">
<path d="M50.0603 19.8912C58.5623 21.5333 64.9827 29.004 64.9827 37.9717C64.9827 45.8943 59.9729 52.648 52.9446 55.2466C51.6332 58.7765 49.2728 61.8205 46.1806 63.9696C43.0885 66.1187 39.4126 67.2699 35.647 67.2686H33.9705C23.7861 67.2686 15.5273 59.0237 15.5273 48.8526C15.526 47.6164 15.6486 46.3831 15.8936 45.1714C14.4476 43.7349 13.3006 42.026 12.5189 40.1436C11.7372 38.2611 11.3363 36.2424 11.3394 34.2042C11.3394 26.5921 16.8384 20.2632 24.0835 18.9632C25.1543 16.3385 27.005 14.1059 29.3855 12.567C31.7661 11.028 34.5617 10.2571 37.3945 10.3582C40.2274 10.4593 42.9609 11.4277 45.2257 13.1324C47.4904 14.8372 49.1772 17.1961 50.0581 19.8904L50.0603 19.8912Z" fill="white"/>
<path d="M34.5703 67.2678C28.2122 64.3535 23.7971 57.9463 23.7971 50.5115C23.7955 49.2743 23.9182 48.0401 24.1633 46.8274C22.7131 45.3909 21.5623 43.6808 20.7777 41.7963C19.993 39.9119 19.5901 37.8904 19.5923 35.8491C19.5923 28.2319 25.1052 21.895 32.3709 20.5935C33.3563 18.1823 35.0007 16.0973 37.116 14.5773C39.2312 13.0572 41.7318 12.1635 44.3313 11.9985C47.422 13.6917 49.7526 16.4975 50.8499 19.8464C59.3716 21.4878 65.8081 28.9666 65.8081 37.9438C65.8081 45.8738 60.7859 52.634 53.74 55.2349C52.4225 58.7699 50.0553 61.8173 46.9561 63.9683C43.8569 66.1193 40.1739 67.2709 36.4014 67.2686H34.5703V67.2678Z" fill="#FFF9F9"/>
<path d="M31.0547 66.906C35.6953 63.4146 40.3015 58.1851 40.3015 50.5115C40.2999 49.2743 40.4226 48.0401 40.6677 46.8274C39.2176 45.3909 38.0668 43.681 37.2822 41.7967C36.4975 39.9123 36.0946 37.891 36.0967 35.8499C36.0967 28.2327 41.6096 21.8958 48.8752 20.5942C49.2243 19.7399 49.6584 18.9228 50.1709 18.1553C50.4341 18.7041 50.6604 19.2698 50.8484 19.8486C59.3716 21.4878 65.8081 28.9666 65.8081 37.9438C65.8081 45.8738 60.7859 52.634 53.74 55.2349C52.4225 58.7699 50.0553 61.8173 46.9561 63.9683C43.8569 66.1193 40.1739 67.2709 36.4014 67.2686H34.7168C33.4871 67.2689 32.2604 67.1475 31.0547 66.906Z" fill="#FFD0BB"/>
<path d="M26.1943 38.3965C26.1943 41.4594 27.4116 44.3969 29.5784 46.5627C31.7452 48.7286 34.684 49.9453 37.7483 49.9453C40.8126 49.9453 43.7514 48.7286 45.9182 46.5627C48.085 44.3969 49.3022 41.4594 49.3022 38.3965C49.3022 35.3335 48.085 32.3961 45.9182 30.2302C43.7514 28.0644 40.8126 26.8477 37.7483 26.8477C34.684 26.8477 31.7452 28.0644 29.5784 30.2302C27.4116 32.3961 26.1943 35.3335 26.1943 38.3965Z" fill="white"/>
<path d="M43.7937 28.552C45.7536 29.7546 47.31 31.5148 48.2635 33.6072C49.217 35.6996 49.5243 38.029 49.146 40.2971C48.7677 42.5652 47.721 44.6687 46.14 46.3384C44.559 48.0081 42.5156 49.1678 40.2715 49.6692C37.7061 49.0739 35.4495 47.5555 33.9316 45.4035C32.4137 43.2514 31.7407 40.616 32.0408 37.9997C32.3409 35.3833 33.5932 32.9688 35.559 31.2164C37.5248 29.4639 40.0667 28.496 42.7002 28.4971C43.0654 28.497 43.4304 28.5153 43.7937 28.552Z" fill="#FFCF00"/>
<path d="M35.6689 68.7686H33.9456C31.3302 68.7686 28.7404 68.2535 26.3241 67.2526C23.9079 66.2517 21.7124 64.7847 19.8631 62.9353C18.0138 61.0859 16.5468 58.8904 15.546 56.4741C14.5452 54.0577 14.0302 51.468 14.0303 48.8526C14.0294 47.7841 14.1136 46.7173 14.2822 45.6622C12.2804 43.469 10.8882 40.7896 10.2444 37.8909C9.6006 34.9922 9.72762 31.9754 10.6128 29.1411C11.498 26.3067 13.1105 23.7538 15.2896 21.7368C17.4687 19.7197 20.1383 18.3088 23.0325 17.6448C24.3107 14.935 26.3546 12.6589 28.9119 11.0976C31.4691 9.53636 34.4277 8.75832 37.4221 8.8596C40.4166 8.96087 43.3158 9.93702 45.7617 11.6675C48.2076 13.398 50.0931 15.807 51.1853 18.597C60.1003 20.7107 66.4827 28.7242 66.4827 37.9739C66.483 41.9291 65.3061 45.7949 63.1017 49.0789C60.8974 52.3629 57.7654 54.9164 54.1047 56.4141C52.6036 60.0697 50.0493 63.1962 46.7665 65.3962C43.4836 67.5961 39.6207 68.77 35.6689 68.7686ZM36.9016 11.8492C34.4497 11.8482 32.0532 12.5781 30.0181 13.9456C27.9829 15.313 26.4015 17.256 25.4758 19.5264L25.1697 20.2881L24.356 20.4346C21.8392 20.8874 19.4946 22.0213 17.5771 23.7133C15.6596 25.4052 14.2426 27.5903 13.48 30.0312C12.7174 32.472 12.6385 35.0752 13.2518 37.5578C13.865 40.0404 15.1471 42.3074 16.9585 44.1124L17.5305 44.6822L17.3701 45.4732C17.1457 46.5854 17.0328 47.7172 17.0332 48.8519C17.0326 51.0733 17.4696 53.2732 18.3193 55.3257C19.1689 57.3783 20.4145 59.2434 21.985 60.8146C23.5555 62.3857 25.42 63.6322 27.4722 64.4827C29.5244 65.3332 31.7241 65.7711 33.9456 65.7715H35.6689C39.1249 65.7724 42.4983 64.7148 45.3352 62.7411C48.1722 60.7675 50.3367 57.9723 51.5376 54.7317L51.7771 54.085L52.4246 53.8462C55.6697 52.6482 58.4696 50.4843 60.4471 47.6461C62.4245 44.8078 63.4845 41.4317 63.4841 37.9725C63.4841 29.8689 57.7178 22.8846 49.7739 21.3604L48.9045 21.1941L48.6299 20.3526C47.8217 17.8798 46.2524 15.7258 44.1464 14.1985C42.0403 12.6713 39.5053 11.849 36.9038 11.8492H36.9016Z" fill="black"/>
<path d="M37.7483 51.4453C30.55 51.4453 24.6943 45.5918 24.6943 38.3965C24.6943 31.2012 30.5537 25.3477 37.7483 25.3477C44.9429 25.3477 50.8022 31.2012 50.8022 38.3965C50.8022 45.5918 44.9465 51.4453 37.7483 51.4453ZM37.7483 28.3477C32.2046 28.3477 27.6943 32.8557 27.6943 38.3965C27.6943 43.9373 32.2046 48.4453 37.7483 48.4453C43.292 48.4453 47.8022 43.9373 47.8022 38.3965C47.8022 32.8557 43.292 28.3447 37.7483 28.3447V28.3477Z" fill="black"/>
</svg>
