<svg width="75" height="75" viewBox="0 0 75 75" fill="none" xmlns="http://www.w3.org/2000/svg">
<path d="M37.4998 43.8032C40.981 43.8032 43.8031 40.9812 43.8031 37.5C43.8031 34.0188 40.981 31.1968 37.4998 31.1968C34.0187 31.1968 31.1966 34.0188 31.1966 37.5C31.1966 40.9812 34.0187 43.8032 37.4998 43.8032Z" fill="#FB5E52"/>
<path d="M61.3996 37.5C62.817 36.1418 64.1092 34.7785 65.2553 33.4244C70.3123 27.4484 71.9889 22.2371 69.9756 18.75C68.4107 16.0395 64.8441 14.7243 59.6656 14.9459C56.6631 15.0746 53.203 15.7081 49.4497 16.8031C48.9822 14.8963 48.4476 13.0951 47.8478 11.4252C45.2013 4.05747 41.5261 0 37.4998 0C34.8142 0 32.2424 1.81963 30.0625 5.26245C28.2573 8.11304 26.7085 12.0854 25.553 16.8031C23.6672 16.2543 21.8392 15.8162 20.0924 15.5008C12.3888 14.1092 7.0371 15.2629 5.02397 18.75C3.01083 22.2371 4.6872 27.4484 9.74428 33.4244C10.8904 34.7785 12.1825 36.1419 13.5999 37.5C12.1825 38.8582 10.8904 40.2215 9.74428 41.5756C4.6872 47.5516 3.01083 52.7629 5.02397 56.25C6.36679 58.5757 9.22866 59.8932 13.3 60.0598C13.599 60.0721 13.9041 60.0781 14.2162 60.0781C17.4218 60.0781 21.2994 59.4327 25.5494 58.1949C26.0169 60.1024 26.5516 61.9043 27.1518 63.5748C29.7986 70.9425 33.4737 75 37.4998 75C41.5261 75 45.2013 70.9425 47.8481 63.5748C48.4479 61.905 48.9825 60.1039 49.45 58.1969C53.2033 59.2917 56.6631 59.9254 59.6659 60.0541C60.0411 60.0702 60.4071 60.0781 60.7654 60.0781C65.3512 60.0779 68.5245 58.764 69.976 56.2499C71.9891 52.7628 70.3128 47.5515 65.2557 41.5755C64.1095 40.2215 62.817 38.8582 61.3996 37.5ZM67.9028 19.9468C69.3518 22.4568 67.7209 26.8055 63.4282 31.8782C62.3059 33.2045 61.0359 34.5412 59.639 35.8736C57.1859 33.6861 54.4214 31.5283 51.4225 29.4617C51.1329 25.8347 50.6468 22.3645 49.9799 19.1486C59.0275 16.501 66.0319 16.7064 67.9028 19.9468ZM37.501 50.9171C35.521 49.9463 33.5309 48.8859 31.5775 47.7582C29.6051 46.6194 27.7005 45.4315 25.8794 44.2096C25.7314 42.0212 25.6551 39.7778 25.6551 37.5003C25.6551 35.2242 25.7338 32.9842 25.8832 30.7884C27.7031 29.5671 29.6065 28.3802 31.5775 27.2421C33.5322 26.1138 35.5227 25.0529 37.5022 24.0828C39.4704 25.0487 41.4507 26.1038 43.4225 27.2421C45.3949 28.3811 47.2995 29.5688 49.1206 30.7907C49.2685 32.9792 49.3449 35.2225 49.3449 37.5C49.3449 39.7775 49.2684 42.0209 49.1206 44.2093C47.2995 45.4313 45.3949 46.6194 43.4225 47.7579C41.453 48.8949 39.4756 49.949 37.501 50.9171ZM23.3818 42.4743C21.1298 40.8532 19.0329 39.185 17.1303 37.5C19.0337 35.8143 21.1315 34.1457 23.3845 32.5236C23.3049 34.1626 23.2613 35.8216 23.2613 37.5C23.2616 39.1778 23.3027 40.8381 23.3818 42.4743ZM51.618 32.5257C53.8701 34.1468 55.967 35.815 57.8695 37.5C55.9671 39.185 53.8701 40.8532 51.618 42.4743C51.6971 40.8382 51.7384 39.1778 51.7384 37.5C51.7384 35.8222 51.6971 34.1619 51.618 32.5257ZM37.4998 2.39355C40.3979 2.39355 43.3485 5.98052 45.5952 12.2344C46.1828 13.8702 46.7057 15.6393 47.1614 17.5163C45.7118 17.996 44.2263 18.5376 42.7116 19.1432C42.0978 19.3885 41.7992 20.0849 42.0445 20.6987C42.2899 21.3126 42.9861 21.6111 43.6 21.3658C44.9924 20.8091 46.3567 20.3101 47.6858 19.8672C48.1931 22.355 48.5886 25.0025 48.8661 27.7605C47.489 26.8739 46.0715 26.0082 44.6187 25.1692C38.9556 21.8997 33.2061 19.2869 27.8415 17.5147C30.0807 8.29102 33.8241 2.39355 37.4998 2.39355ZM11.5717 31.8782C7.2788 26.8055 5.64799 22.4568 7.09702 19.9468C8.54589 17.4371 13.1275 16.6748 19.667 17.8562C21.6713 18.2183 23.7899 18.7482 25.9856 19.4307C26.0423 19.4531 26.1006 19.4726 26.162 19.4864C28.9273 20.3546 31.8132 21.4636 34.7493 22.7865C33.2856 23.5393 31.8233 24.336 30.3804 25.1689C28.9298 26.0065 27.5144 26.8711 26.1392 27.7563C26.2948 26.2225 26.4839 24.7128 26.7142 23.2371C26.8162 22.5839 26.3694 21.9721 25.7162 21.8703C25.0643 21.7682 24.4512 22.2151 24.3494 22.8683C24.0158 25.0058 23.7618 27.2087 23.5813 29.4589C20.5806 31.5262 17.8148 33.6851 15.3605 35.8734C13.9638 34.541 12.6939 33.2042 11.5717 31.8782ZM7.09702 55.0532C5.64799 52.5435 7.27895 48.1947 11.5717 43.1218C12.6939 41.7955 13.9639 40.4588 15.3606 39.1264C17.814 41.3139 20.5783 43.4717 23.5774 45.5383C23.8671 49.1672 24.3536 52.6389 25.0208 55.8561C15.9139 58.5289 8.93496 58.2365 7.09702 55.0532ZM45.5953 62.7656C43.3487 69.0195 40.398 72.6064 37.5 72.6064C34.6019 72.6064 31.6513 69.0195 29.4047 62.7656C28.7162 60.8498 28.1166 58.7517 27.61 56.5105C27.6009 56.4482 27.5884 56.3859 27.5689 56.3241C27.5688 56.3237 27.5685 56.3229 27.5684 56.3224C26.938 53.4948 26.4558 50.4423 26.1334 47.2397C27.5105 48.1263 28.928 48.9921 30.3808 49.8311C31.8221 50.6632 33.2833 51.4594 34.7465 52.212C33.3391 52.8451 31.9356 53.433 30.5411 53.9722C29.9247 54.2105 29.618 54.9035 29.8564 55.5201C30.0398 55.9948 30.4928 56.2857 30.9729 56.2857C31.1162 56.2857 31.2622 56.2597 31.404 56.205C35.7725 54.5164 40.2187 52.3721 44.6194 49.8313C46.0724 48.9924 47.4896 48.1266 48.8669 47.24C48.5893 49.9982 48.1936 52.6456 47.6865 55.1334C46.3576 54.6907 44.9931 54.1915 43.6009 53.635C42.9873 53.3896 42.2908 53.6881 42.0454 54.3021C41.8 54.9158 42.0987 55.6122 42.7125 55.8576C44.2271 56.4631 45.7125 57.0047 47.1621 57.4844C46.7058 59.3607 46.183 61.13 45.5953 62.7656ZM67.9028 55.0532C66.0321 58.2936 59.0279 58.4991 49.9799 55.8513C50.6467 52.6354 51.1329 49.1654 51.4225 45.5382C54.4214 43.4719 57.186 41.3137 59.639 39.1263C61.0359 40.4588 62.3058 41.7955 63.4282 43.1216C67.721 48.1947 69.352 52.5434 67.9028 55.0532Z" fill="black"/>
<path d="M37.4998 30C33.3643 30 29.9998 33.3645 29.9998 37.5C29.9998 41.6355 33.3643 45 37.4998 45C41.6354 45 44.9998 41.6355 44.9998 37.5C44.9998 33.3645 41.6354 30 37.4998 30ZM37.4998 42.6064C34.6841 42.6064 32.3934 40.3157 32.3934 37.5C32.3934 34.6843 34.6841 32.3936 37.4998 32.3936C40.3156 32.3936 42.6063 34.6843 42.6063 37.5C42.6063 40.3157 40.3156 42.6064 37.4998 42.6064Z" fill="black"/>
</svg>
