<svg width="100" height="100" viewBox="0 0 100 100" fill="none" xmlns="http://www.w3.org/2000/svg">
<g clip-path="url(#clip0_17_96)">
<path d="M97.4546 45.6078L54.3945 2.54995C51.9164 0.0702637 47.8945 0.0702637 45.4124 2.54995L36.4726 11.4921L47.8148 22.8343C50.4515 21.9445 53.4734 22.5414 55.5742 24.6421C57.6859 26.7562 58.2789 29.8039 57.3656 32.4492L68.2968 43.382C70.9414 42.4703 73.9937 43.0593 76.1046 45.175C79.0578 48.1257 79.0578 52.9093 76.1046 55.8617C73.1515 58.8148 68.3695 58.8148 65.4148 55.8617C63.1945 53.6398 62.6453 50.3781 63.7703 47.6421L53.5765 37.4476L53.5749 64.2765C54.2953 64.632 54.9742 65.107 55.5742 65.7046C58.5265 68.6554 58.5265 73.4375 55.5742 76.3945C52.6218 79.3453 47.8367 79.3453 44.8874 76.3945C41.9359 73.4382 41.6937 68.6562 44.6445 65.7046C45.3742 64.9757 46.0937 64.4249 46.8749 64.0562V36.9789C46.0937 36.6101 45.3749 36.0632 44.6437 35.3296C42.4085 33.0953 41.9906 29.814 43.1374 27.0671L32.0179 15.8851L2.5226 45.4085C0.0421327 47.8906 0.0577577 51.9125 2.53823 54.3929L45.6054 97.4507C48.0843 99.9304 52.1093 99.9304 54.5921 97.4507L97.4515 54.5929C99.932 52.1117 99.9343 48.0875 97.4546 45.6078Z" fill="#F34F29"/>
</g>
<defs>
<clipPath id="clip0_17_96">
<rect width="100" height="100" fill="white"/>
</clipPath>
</defs>
</svg>
