<svg width="98" height="96" viewBox="0 0 98 96" fill="none" xmlns="http://www.w3.org/2000/svg">
<path d="M39.2529 0.401761C34.7883 1.42708 30.3718 2.85419 26.2311 5.00717C26.3258 8.78404 26.5621 12.403 27.0413 16.0789C25.4333 17.1432 23.7433 18.0566 22.2413 19.3024C20.7152 20.5152 19.1564 21.6758 17.7747 23.0943C15.0142 21.208 12.0927 19.4354 9.08286 17.8705C5.83838 21.4777 2.80437 25.3711 0.326172 29.7276C2.19065 32.8435 4.13722 35.7639 6.23896 38.5354H6.29744V65.2738C6.34479 65.2741 6.39248 65.2764 6.43938 65.2809L22.3074 66.8609C23.1386 66.9438 23.7899 67.6351 23.8478 68.4956L24.3372 75.7316L38.1787 76.7522L39.132 70.0735C39.2556 69.2076 39.975 68.5661 40.8228 68.5661H57.5641C58.4115 68.5661 59.1307 69.2076 59.2544 70.0735L60.2076 76.7522L74.0498 75.7316L74.5386 68.4956C74.5969 67.6351 75.2478 66.9443 76.079 66.8609L91.9406 65.2809C91.9875 65.2763 92.0346 65.2743 92.082 65.2738V63.1401L92.0888 63.1378V38.5354H92.1472C94.2493 35.7638 96.1946 32.8432 98.06 29.7276C95.5827 25.3708 92.5472 21.4774 89.3028 17.8705C86.2937 19.4352 83.3708 21.2078 80.6103 23.0943C79.229 21.6759 77.6731 20.5152 76.1449 19.3024C74.6434 18.0565 72.951 17.1431 71.3461 16.0789C71.8239 12.403 72.0606 8.78405 72.1557 5.00718C68.0148 2.85404 63.5985 1.42684 59.1316 0.401611C57.3482 3.49801 55.7174 6.85056 54.297 10.1286C52.6127 9.83789 50.9206 9.73011 49.2264 9.70927V9.70693C49.2145 9.70693 49.2035 9.70927 49.1935 9.70927C49.183 9.70927 49.1716 9.70693 49.1611 9.70693V9.70927C47.4636 9.73009 45.7727 9.83789 44.0881 10.1286C42.6686 6.85086 41.0389 3.49816 39.2529 0.401761ZM6.27033 68.8102C6.27692 70.3943 6.29645 72.1297 6.29645 72.4753C6.29645 88.0423 25.4127 95.5246 49.1627 95.6108H49.2212C72.9715 95.5247 92.0817 88.0423 92.0817 72.4753C92.0817 72.1235 92.1025 70.3952 92.1095 68.8102L77.8467 70.2313L77.355 77.5061C77.2958 78.3829 76.6208 79.0807 75.7721 79.1437L58.8694 80.3894C58.8282 80.3926 58.787 80.3941 58.7462 80.3941C57.9063 80.3941 57.1818 79.7569 57.0577 78.8856L56.0885 72.0955H42.2969L41.3278 78.8856C41.1976 79.7995 40.4068 80.4569 39.516 80.3894L22.6134 79.1437C21.7647 79.0807 21.0896 78.3828 21.0305 77.5061L20.5393 70.2313L6.27073 68.8102H6.27033Z" fill="#478CBF"/>
<path d="M26.6985 39.5159C21.4195 39.5159 17.1372 43.9351 17.1372 49.3894C17.1372 54.8474 21.4192 59.2687 26.6985 59.2687C31.9802 59.2687 36.2613 54.8474 36.2613 49.3894C36.2613 43.9351 31.9802 39.5159 26.6985 39.5159ZM71.6869 39.5159C66.4044 39.5159 62.1235 43.9351 62.1235 49.3894C62.1235 54.8474 66.4044 59.2687 71.6869 59.2687C76.9657 59.2687 81.2471 54.8474 81.2471 49.3894C81.2471 43.9351 76.9657 39.5159 71.6869 39.5159ZM49.1907 45.2936C47.4906 45.2936 46.1128 46.5893 46.1128 48.1834V57.2774C46.1128 58.8729 47.4906 60.1672 49.1907 60.1672C50.8908 60.1672 52.2721 58.8729 52.2721 57.2774V48.1834C52.2721 46.5893 50.8909 45.2936 49.1907 45.2936Z" fill="white"/>
<path d="M27.6133 43.4197C24.1078 43.4197 21.2662 46.3567 21.2662 49.977C21.2662 53.5973 24.1079 56.5314 27.6133 56.5314C31.1206 56.5314 33.961 53.5973 33.961 49.977C33.961 46.3568 31.1205 43.4197 27.6133 43.4197ZM70.7703 43.4197C67.2657 43.4197 64.4261 46.3567 64.4261 49.977C64.4261 53.5973 67.2659 56.5314 70.7703 56.5314C74.2785 56.5314 77.1174 53.5973 77.1174 49.977C77.1174 46.3568 74.2783 43.4197 70.7703 43.4197Z" fill="#414042"/>
</svg>
