<svg width="41" height="42" viewBox="0 0 41 42" fill="none" xmlns="http://www.w3.org/2000/svg">
<g clip-path="url(#clip0_34_1522)">
<path d="M5.66819 37.0101L2.40454 0.406738H38.264L34.997 37.005L20.3123 41.0753L5.66819 37.0101Z" fill="#E44D26"/>
<path d="M20.3342 37.9641L32.1993 34.6734L34.9918 3.39929H20.3342V37.9641Z" fill="#F16529"/>
<path d="M20.3342 16.9758H14.3949L13.9832 12.3785H20.3342V7.88806H9.07751L9.18427 9.09287L10.2874 21.4629H20.3342V16.9758ZM20.3342 28.6341L20.3139 28.6392L15.3151 27.2886L14.9948 23.7081H10.4891L11.1177 30.7573L20.3139 33.311L20.3342 33.3042V28.6341Z" fill="#EBEBEB"/>
<path d="M20.319 16.9758V21.4646H25.8482L25.3263 27.287L20.319 28.6375V33.3076L29.5219 30.7573L29.5897 29.9982L30.6454 18.1806L30.7538 16.9741H29.5439L20.319 16.9758ZM20.319 7.88806V12.3785H31.1622L31.252 11.3686L31.4571 9.09287L31.5638 7.88806H20.319Z" fill="white"/>
<path d="M20.3348 41.0685L20.3123 41.0756H20.3348V41.0685Z" fill="#DEDEDE"/>
<path d="M20.3343 12.3785H13.9832L14.3933 16.9758H20.3173H20.3343V12.3785ZM20.3343 0.406738H2.40454L5.66819 37.0101L20.3123 41.0753L20.3343 41.0685V33.3042L20.3139 33.311L11.1178 30.7573L10.4891 23.7081H14.9948L15.3151 27.2886L20.3139 28.6392L20.319 28.6375L20.3343 28.6341V21.4646H10.2875L9.18432 9.09455L9.07757 7.88805H20.319H20.3343V0.406738Z" fill="#C64321"/>
<path d="M14.9948 23.7081H10.4891L11.1177 30.7573L20.3139 33.311L20.3342 33.3042L20.319 33.3076V28.6375L20.3139 28.6392L15.3151 27.2886L14.9948 23.7081ZM20.319 7.88806H9.07751L9.18427 9.09287L10.2874 21.4629H20.3342H20.319V16.9758H14.3949L13.9832 12.3785H20.3342H20.319V7.88806Z" fill="#CDCDCD"/>
<path d="M20.3342 28.6341L20.319 28.6375V33.3076L20.3342 33.3042V28.6341ZM20.3342 16.9758H20.319V21.4646H20.3342V16.9758ZM20.3342 7.88806H20.319V12.3785H20.3342V7.88806Z" fill="#DEDEDE"/>
</g>
<defs>
<clipPath id="clip0_34_1522">
<rect width="40.6685" height="40.6685" fill="white" transform="translate(0 0.406738)"/>
</clipPath>
</defs>
</svg>