<svg width="75" height="75" viewBox="0 0 75 75" fill="none" xmlns="http://www.w3.org/2000/svg">
<g clip-path="url(#clip0_28_315)">
<path d="M51.5625 0H23.4375C17.2215 0 11.2601 2.4693 6.86469 6.86469C2.4693 11.2601 0 17.2215 0 23.4375L0 51.5625C0 57.7785 2.4693 63.7399 6.86469 68.1353C11.2601 72.5307 17.2215 75 23.4375 75H51.5625C57.7785 75 63.7399 72.5307 68.1353 68.1353C72.5307 63.7399 75 57.7785 75 51.5625V23.4375C75 17.2215 72.5307 11.2601 68.1353 6.86469C63.7399 2.4693 57.7785 0 51.5625 0ZM67.9688 51.5625C67.9688 60.6094 60.6094 67.9688 51.5625 67.9688H23.4375C14.3906 67.9688 7.03125 60.6094 7.03125 51.5625V23.4375C7.03125 14.3906 14.3906 7.03125 23.4375 7.03125H51.5625C60.6094 7.03125 67.9688 14.3906 67.9688 23.4375V51.5625Z" fill="url(#paint0_linear_28_315)"/>
<path d="M37.5 18.75C32.5272 18.75 27.7581 20.7254 24.2417 24.2417C20.7254 27.7581 18.75 32.5272 18.75 37.5C18.75 42.4728 20.7254 47.2419 24.2417 50.7583C27.7581 54.2746 32.5272 56.25 37.5 56.25C42.4728 56.25 47.2419 54.2746 50.7583 50.7583C54.2746 47.2419 56.25 42.4728 56.25 37.5C56.25 32.5272 54.2746 27.7581 50.7583 24.2417C47.2419 20.7254 42.4728 18.75 37.5 18.75ZM37.5 49.2188C34.3931 49.215 31.4146 47.9792 29.2177 45.7823C27.0208 43.5854 25.785 40.6069 25.7812 37.5C25.7812 31.0359 31.0406 25.7812 37.5 25.7812C43.9594 25.7812 49.2188 31.0359 49.2188 37.5C49.2188 43.9594 43.9594 49.2188 37.5 49.2188Z" fill="url(#paint1_linear_28_315)"/>
<path d="M57.6561 19.8421C59.0359 19.8421 60.1545 18.7235 60.1545 17.3437C60.1545 15.9638 59.0359 14.8452 57.6561 14.8452C56.2762 14.8452 55.1577 15.9638 55.1577 17.3437C55.1577 18.7235 56.2762 19.8421 57.6561 19.8421Z" fill="url(#paint2_linear_28_315)"/>
</g>
<defs>
<linearGradient id="paint0_linear_28_315" x1="6.8625" y1="68.1375" x2="68.1375" y2="6.8625" gradientUnits="userSpaceOnUse">
<stop stop-color="#FFC107"/>
<stop offset="0.507" stop-color="#F44336"/>
<stop offset="0.99" stop-color="#9C27B0"/>
</linearGradient>
<linearGradient id="paint1_linear_28_315" x1="24.2438" y1="50.7562" x2="50.7562" y2="24.2438" gradientUnits="userSpaceOnUse">
<stop stop-color="#FFC107"/>
<stop offset="0.507" stop-color="#F44336"/>
<stop offset="0.99" stop-color="#9C27B0"/>
</linearGradient>
<linearGradient id="paint2_linear_28_315" x1="55.8889" y1="19.1108" x2="59.4233" y2="15.5765" gradientUnits="userSpaceOnUse">
<stop stop-color="#FFC107"/>
<stop offset="0.507" stop-color="#F44336"/>
<stop offset="0.99" stop-color="#9C27B0"/>
</linearGradient>
<clipPath id="clip0_28_315">
<rect width="75" height="75" fill="white"/>
</clipPath>
</defs>
</svg>
