<svg width="32" height="32" viewBox="0 0 32 32" fill="none" xmlns="http://www.w3.org/2000/svg">
<rect x="0.72728" y="0.727051" width="30.5455" height="30.5455" rx="10" fill="#D9D9D9"/>
<g clip-path="url(#clip0_33_263)">
<path d="M27.0906 27.0907H22.4234V19.78C22.4234 18.037 22.3919 15.7927 19.9953 15.7927C17.5645 15.7927 17.1918 17.6932 17.1918 19.6514V27.0907H12.5245V12.0573H17.0054V14.1127H17.0684C17.9819 12.5534 19.6829 11.6189 21.4889 11.6845C26.2191 11.6845 27.0933 14.7952 27.0933 18.8455L27.0906 27.088V27.0907ZM7.25875 10.0019C6.54179 9.99847 5.85515 9.71231 5.34793 9.20558C4.84071 8.69886 4.55389 8.01249 4.54975 7.29554C4.54975 5.80979 5.773 4.58654 7.25875 4.58654C8.7445 4.58654 9.96513 5.80979 9.96775 7.29554C9.96775 8.78129 8.7445 10.0019 7.25875 10.0019ZM9.59237 27.0907H4.91988V12.0573H9.59237V27.0907ZM29.4137 0.250039H2.57312C1.96452 0.246504 1.37911 0.483296 0.944111 0.908956C0.509111 1.33462 0.259672 1.91475 0.25 2.52329V29.4768C0.259672 30.0853 0.509111 30.6655 0.944111 31.0911C1.37911 31.5168 1.96452 31.7536 2.57312 31.75H29.4164C30.0264 31.755 30.6137 31.519 31.0507 31.0933C31.4876 30.6676 31.739 30.0867 31.75 29.4768V2.52066C31.739 1.91121 31.4875 1.33083 31.0503 0.905997C30.6132 0.481167 30.0259 0.24633 29.4164 0.252664L29.4137 0.250039Z" fill="#0A66C2"/>
</g>
<defs>
<clipPath id="clip0_33_263">
<rect width="32" height="32" fill="white"/>
</clipPath>
</defs>
</svg>