<svg width="24" height="20" viewBox="0 0 24 20" fill="none" xmlns="http://www.w3.org/2000/svg">
<g clip-path="url(#clip0_33_276)">
<path fill-rule="evenodd" clip-rule="evenodd" d="M1.33333 0.666656C0.59696 0.666656 0 1.26362 0 1.99999C0 2.73636 0.59696 3.33332 1.33333 3.33332H22.6667C23.4031 3.33332 24 2.73636 24 1.99999C24 1.26362 23.4031 0.666656 22.6667 0.666656H1.33333ZM5.33333 9.99999C5.33333 9.26359 5.93029 8.66666 6.66667 8.66666H22.6667C23.4031 8.66666 24 9.26359 24 9.99999C24 10.7364 23.4031 11.3333 22.6667 11.3333H6.66667C5.93029 11.3333 5.33333 10.7364 5.33333 9.99999ZM13.3333 18C13.3333 17.2636 13.9303 16.6667 14.6667 16.6667H22.6667C23.4031 16.6667 24 17.2636 24 18C24 18.7364 23.4031 19.3333 22.6667 19.3333H14.6667C13.9303 19.3333 13.3333 18.7364 13.3333 18Z" fill="white"/>
</g>
<defs>
<clipPath id="clip0_33_276">
<rect width="24" height="20" fill="white"/>
</clipPath>
</defs>
</svg>