<svg width="100" height="100" viewBox="0 0 100 100" fill="none" xmlns="http://www.w3.org/2000/svg">
<path d="M1.56328 70.6701H4.77266V57.9959L9.74141 69.0451C10.3273 70.3826 11.1297 70.8552 12.7039 70.8552C14.2781 70.8552 15.05 70.3826 15.6359 69.0451L20.6047 57.9959V70.6701H23.8141V58.017C23.8141 56.7826 23.3203 56.1849 22.3016 55.8771C19.8633 55.1162 18.2273 55.7748 17.4867 57.4209L12.6109 68.3256L7.88984 57.4201C7.17969 55.7748 5.51328 55.1162 3.075 55.8763C2.05625 56.1849 1.5625 56.7818 1.5625 58.0162L1.56328 70.6701ZM26.4836 60.3529H29.6922V67.3357C29.6625 67.7146 29.8141 68.6052 31.5719 68.6334C32.4687 68.6474 38.4953 68.6334 38.5516 68.6334V60.3185H41.768C41.7828 60.3185 41.7648 71.6576 41.7648 71.7045C41.782 74.5013 38.2953 75.1084 36.6875 75.1552H26.5531V72.9959C26.5703 72.9959 36.6805 72.9982 36.7055 72.9951C38.7719 72.7771 38.5273 71.7506 38.5266 71.4052V70.5631H31.7055C28.532 70.5341 26.5102 69.149 26.4844 67.5552C26.4828 67.4091 26.5539 60.4232 26.4836 60.3529Z" fill="#00618A"/>
<path d="M44.2422 70.6702H53.4703C54.5508 70.6702 55.6008 70.4444 56.4336 70.0538C57.8219 69.4163 58.5008 68.5522 58.5008 67.4194V65.0741C58.5008 64.1483 57.7297 63.2835 56.2172 62.7085C55.4148 62.3991 54.4266 62.2358 53.4695 62.2358H49.5805C48.2844 62.2358 47.6672 61.8452 47.5133 60.9812C47.4828 60.878 47.4828 60.796 47.4828 60.6929V59.2319C47.4828 59.1499 47.4828 59.0671 47.5133 58.9647C47.6672 58.3061 48.007 58.121 49.1492 58.0179L49.4578 57.9976H58.6242V55.8585H49.6125C48.3164 55.8585 47.6375 55.9405 47.0203 56.1257C45.107 56.7226 44.2727 57.6686 44.2727 59.3147V61.1866C44.2727 62.6272 45.9094 63.8616 48.6555 64.1499C48.9648 64.1694 49.2727 64.1913 49.5812 64.1913H52.9148C53.0383 64.1913 53.1617 64.1913 53.2547 64.2108C54.2734 64.2929 54.7047 64.4788 55.0141 64.8483C55.1992 65.0335 55.2602 65.2194 55.2602 65.4241V67.2968C55.2602 67.5226 55.1062 67.8108 54.7977 68.0577C54.5203 68.3046 54.057 68.4694 53.4398 68.5108L53.1 68.5312H44.2422V70.6702ZM78.5242 66.9468C78.5242 69.1476 80.1602 70.3819 83.4617 70.6296C83.7703 70.6499 84.0789 70.6702 84.3875 70.6702H92.7516V68.5312H84.3266C82.4438 68.5312 81.7344 68.0577 81.7344 66.9257V55.8569H78.525L78.5242 66.9468ZM60.5492 67.0577V59.4288C60.5492 57.4913 61.9102 56.3155 64.6008 55.9444C64.8789 55.903 65.1891 55.8827 65.4664 55.8827H71.5594C71.8687 55.8827 72.1469 55.903 72.4555 55.9444C75.1461 56.3155 76.5078 57.4905 76.5078 59.4288V67.0577C76.5078 68.6312 75.9297 69.4718 74.5977 70.0202L77.7602 72.8741H74.0328L71.475 70.5647L68.9 70.728H65.4664C64.8789 70.728 64.2609 70.646 63.5805 70.4601C61.5391 69.9038 60.5492 68.8312 60.5492 67.0577ZM64.0133 66.8726C64.0133 66.9757 64.0437 67.0796 64.075 67.203C64.2602 68.0897 65.0961 68.5843 66.3633 68.5843H69.2789L66.6008 66.1663H70.3281L72.6633 68.2757C73.0945 68.0452 73.3773 67.6952 73.4766 67.2444C73.507 67.1413 73.507 67.0382 73.507 66.9351V59.6163C73.507 59.5343 73.507 59.4304 73.4766 59.3272C73.2906 58.5022 72.4555 58.0288 71.2188 58.0288H66.3625C64.9406 58.0288 64.0125 58.6476 64.0125 59.6163L64.0133 66.8726Z" fill="#E48E00"/>
<path d="M95.5751 52.3061C93.6024 52.2522 92.0954 52.4358 90.8063 52.9788C90.4399 53.1335 89.8563 53.1374 89.7969 53.596C89.9977 53.8077 90.029 54.1225 90.1891 54.3819C90.4969 54.8796 91.0165 55.5467 91.4797 55.896C91.9852 56.278 92.5071 56.6874 93.0508 57.0186C94.0157 57.6077 95.0938 57.9436 96.0243 58.5327C96.5719 58.8811 97.1157 59.3186 97.6508 59.7116C97.9157 59.9046 98.0922 60.2069 98.4368 60.328V60.2725C98.2563 60.0428 98.2094 59.7272 98.0438 59.4866L97.3141 58.7569C96.6008 57.81 95.6961 56.9796 94.7329 56.2889C93.9657 55.7382 92.2485 54.9936 91.9282 54.1007L91.8719 54.0452C92.4157 53.9835 93.0532 53.7866 93.5547 53.6522C94.3985 53.4257 95.1524 53.4842 96.0235 53.2592L97.2016 52.9217V52.6983C96.7618 52.2468 96.4469 51.6483 95.9672 51.2397C94.7118 50.1702 93.3399 49.1014 91.9282 48.2093C91.1454 47.7155 90.1774 47.3944 89.3469 46.9757C89.0688 46.8343 88.5782 46.7616 88.393 46.5264C87.9563 45.971 87.7196 45.2671 87.3829 44.6194C86.6797 43.2639 85.9876 41.7827 85.3633 40.3553C84.9383 39.3827 84.6602 38.4233 84.1297 37.5507C81.5821 33.3624 78.8399 30.8342 74.5922 28.3499C73.6883 27.821 72.6001 27.6132 71.4508 27.3405L69.5993 27.228C69.2235 27.071 68.8313 26.61 68.4774 26.3866C67.0696 25.4975 63.4602 23.5639 62.418 26.1069C61.7602 27.7116 63.4024 29.2772 63.9891 30.0905C64.4008 30.6608 64.929 31.2999 65.2235 31.9413C65.4172 32.3632 65.45 32.7858 65.6165 33.2319C66.0235 34.3303 66.379 35.5264 66.9063 36.5413C67.1727 37.0553 67.4672 37.5968 67.804 38.0561C68.0102 38.3374 68.3649 38.4624 68.4204 38.8975C68.0743 39.3819 68.054 40.135 67.8594 40.7483C66.9829 43.5132 67.3133 46.9499 68.5891 48.996C68.9805 49.6249 69.9024 50.9718 71.1696 50.4546C72.2782 50.003 72.0313 48.6038 72.3485 47.3686C72.4204 47.0897 72.3758 46.8835 72.5165 46.696V46.7522L73.5266 48.7718C74.2743 49.9757 75.6001 51.2327 76.7243 52.0819C77.3071 52.5218 77.7665 53.2835 78.5196 53.5405V53.4835H78.4641C78.3172 53.2561 78.0899 53.1624 77.9024 52.9788C77.4633 52.5483 76.9751 52.0139 76.6126 51.5202C75.5899 50.1327 74.6868 48.6132 73.8633 47.0319C73.4704 46.2772 73.129 45.4444 72.7977 44.6757C72.6696 44.3796 72.6711 43.9311 72.4055 43.7788C72.0415 44.3413 71.5079 44.7968 71.2266 45.4616C70.7782 46.5241 70.7204 47.8202 70.554 49.1639L70.4415 49.2194C69.6594 49.0311 69.3852 48.2264 69.0946 47.5366C68.3602 45.7921 68.2235 42.9819 68.8704 40.9733C69.0375 40.453 69.793 38.8163 69.4868 38.3358C69.3407 37.8569 68.8586 37.5803 68.5899 37.2132C68.2563 36.7608 67.9227 36.1655 67.6922 35.6421C67.0907 34.2819 66.8102 32.7546 66.1782 31.3788C65.8751 30.721 65.3641 30.0561 64.9438 29.4718C64.479 28.8233 63.9579 28.3468 63.5969 27.5639C63.4688 27.2858 63.2946 26.8397 63.4844 26.5538C63.5446 26.3608 63.6313 26.2803 63.8219 26.2171C64.1469 25.9663 65.0532 26.3007 65.3922 26.4413C66.2922 26.8155 67.043 27.171 67.8055 27.6757C68.1711 27.9186 68.5407 28.3874 68.9836 28.5171H69.4883C70.2782 28.6983 71.1633 28.5725 71.9008 28.7968C73.2055 29.1936 74.3743 29.81 75.4352 30.4803C78.6688 32.5225 81.3118 35.4288 83.1211 38.896C83.4118 39.4546 83.5383 39.9866 83.7938 40.5788C84.311 41.7725 84.9626 43.0014 85.4766 44.1694C85.9899 45.3342 86.4907 46.51 87.2165 47.4796C87.5977 47.9889 89.0711 48.2624 89.7407 48.5452C90.2102 48.7436 90.979 48.9507 91.4235 49.2178C92.2727 49.7303 93.0961 50.3405 93.8922 50.9014C94.2899 51.1842 95.5141 51.7991 95.5751 52.3061ZM70.4977 30.9319C70.0868 30.9241 69.7954 30.9772 69.4876 31.0444V31.0999H69.5438C69.7399 31.5038 70.086 31.7632 70.329 32.11L70.8907 33.2882L70.9461 33.2327C71.2938 32.9882 71.4524 32.5968 71.4508 31.9983C71.311 31.8514 71.2907 31.6678 71.1704 31.4936C71.011 31.2593 70.7001 31.128 70.4977 30.9319Z" fill="#00618A"/>
</svg>
