<svg width="75" height="80" viewBox="0 0 75 80" fill="none" xmlns="http://www.w3.org/2000/svg">
<g clip-path="url(#clip0_33_4)">
<path d="M0.16262 16.3206C0.383699 12.5397 3.39597 9.68228 7.15688 9.08329C10.8702 8.49194 15.5199 7.62736 19.1429 6.54889C23.699 5.19279 29.8783 2.53194 33.7776 0.77238C36.1422 -0.294569 38.8578 -0.294569 41.2224 0.77238C45.1217 2.53194 51.301 5.19279 55.8571 6.54889C59.4801 7.62736 64.1298 8.49194 67.8431 9.08329C71.604 9.68228 74.6163 12.5397 74.8374 16.3206C75.7125 31.288 74.2324 68.4004 39.8395 79.6933C38.338 80.1863 36.662 80.1863 35.1605 79.6933C0.767565 68.4004 -0.71246 31.288 0.16262 16.3206Z" fill="#0F277F"/>
<path d="M6.81818 19.2526V24.8185C6.81818 26.8696 9.79857 27.1574 10.1954 25.1446L10.8315 21.919C10.9912 21.1084 11.4433 20.3838 12.1026 19.8811L15.4116 17.3585C16.9497 16.1862 15.6406 13.7772 13.8114 14.4136L9.10107 16.0529C7.73369 16.5289 6.81818 17.8121 6.81818 19.2526Z" fill="white"/>
<path d="M29.1015 39.0509C31.0788 39.4576 32.5902 40.2712 33.6356 41.4915C34.7039 42.6893 35.2379 44.147 35.2379 45.8644C35.2379 47.2656 34.8517 48.5649 34.0788 49.7627C33.3288 50.9605 32.1697 51.9322 30.6015 52.678C29.0562 53.4012 27.1357 53.7627 24.8402 53.7627C23.1585 53.7627 21.488 53.5593 19.8288 53.1525C18.1924 52.7458 16.772 52.1695 15.5674 51.4237L18.022 46.3729C18.9539 47.0056 19.9993 47.4915 21.1584 47.8305C22.3403 48.1695 23.4994 48.339 24.6356 48.339C25.7947 48.339 26.7152 48.1242 27.397 47.6949C28.0788 47.2656 28.4197 46.6554 28.4197 45.8644C28.4197 44.3276 27.2039 43.5593 24.772 43.5593H21.9424V39.322L26.2038 34.7458H16.7947V29.5593H34.0447V33.7627L29.1015 39.0509Z" fill="#FDAFA4"/>
<path d="M38.6313 29.5593H49.9154C52.529 29.5593 54.8472 30.0453 56.8699 31.017C58.8927 31.9886 60.4609 33.3673 61.5745 35.1525C62.6882 36.9378 63.2449 39.0283 63.2449 41.4237C63.2449 43.8192 62.6882 45.9097 61.5745 47.6949C60.4609 49.4802 58.8927 50.8588 56.8699 51.8305C54.8472 52.8022 52.529 53.2881 49.9154 53.2881H38.6313V29.5593ZM49.6427 47.9322C51.6881 47.9322 53.3245 47.3559 54.5518 46.2034C55.8017 45.0508 56.4268 43.4576 56.4268 41.4237C56.4268 39.3898 55.8017 37.7966 54.5518 36.6441C53.3245 35.4915 51.6881 34.9153 49.6427 34.9153H45.3813V47.9322H49.6427Z" fill="#FDAFA4"/>
<path d="M21.1364 29.5593H16.7947V34.7458H20.6148L21.1364 29.5593Z" fill="white"/>
<path d="M19.3676 47.1467C18.8954 46.9194 18.4469 46.6613 18.022 46.3728L15.5674 51.4237C16.5102 52.0074 17.5855 52.4872 18.7928 52.8633L19.3676 47.1467Z" fill="white"/>
<path d="M42.4486 29.5593H38.6313V53.2881H40.9091L42.4486 29.5593Z" fill="white"/>
</g>
<defs>
<clipPath id="clip0_33_4">
<rect width="75" height="80" fill="white"/>
</clipPath>
</defs>
</svg>
