<svg width="100" height="100" viewBox="0 0 100 100" fill="none" xmlns="http://www.w3.org/2000/svg">
<g clip-path="url(#clip0_16_51)">
<path d="M49.5719 0.0280762C24.2493 0.0280762 25.8304 11.0536 25.8304 11.0536L25.8585 22.4763H50.0234V25.9057H16.2606C16.2606 25.9057 0.0566406 24.0606 0.0566406 49.7136C0.0566406 75.3673 14.1998 74.4575 14.1998 74.4575H22.6404V62.5532C22.6404 62.5532 22.1854 48.3532 36.5579 48.3532H60.5252C60.5252 48.3532 73.9907 48.5716 73.9907 35.2869V13.3214C73.9907 13.3214 76.0358 0.0280762 49.5719 0.0280762ZM36.2474 7.70965C36.8184 7.70913 37.3839 7.82167 37.9116 8.04084C38.4393 8.26 38.9187 8.58148 39.3225 8.98689C39.7263 9.39229 40.0465 9.87366 40.2648 10.4034C40.483 10.9332 40.5951 11.501 40.5946 12.0744C40.5951 12.6477 40.483 13.2155 40.2648 13.7453C40.0465 14.275 39.7263 14.7564 39.3225 15.1618C38.9187 15.5672 38.4393 15.8887 37.9116 16.1079C37.3839 16.327 36.8184 16.4396 36.2474 16.4391C35.6763 16.4396 35.1108 16.327 34.5831 16.1079C34.0555 15.8887 33.576 15.5672 33.1723 15.1618C32.7685 14.7564 32.4483 14.275 32.23 13.7453C32.0117 13.2155 31.8996 12.6477 31.9001 12.0744C31.8996 11.501 32.0117 10.9332 32.23 10.4034C32.4483 9.87366 32.7685 9.39229 33.1723 8.98689C33.576 8.58148 34.0555 8.26 34.5831 8.04084C35.1108 7.82167 35.6763 7.70913 36.2474 7.70965Z" fill="url(#paint0_linear_16_51)"/>
<path d="M50.291 99.6573C75.6136 99.6573 74.0325 88.6318 74.0325 88.6318L74.0044 77.2094H49.8391V73.78H83.602C83.602 73.78 99.8059 75.6251 99.8059 49.9714C99.8059 24.3181 85.6627 25.2279 85.6627 25.2279H77.2221V37.1318C77.2221 37.1318 77.6771 51.3318 63.3046 51.3318H39.3374C39.3374 51.3318 25.8718 51.1134 25.8718 64.3985V86.3643C25.8718 86.3643 23.8271 99.6573 50.2906 99.6573H50.291ZM63.6156 91.9765C63.0445 91.977 62.479 91.8645 61.9513 91.6453C61.4237 91.4261 60.9442 91.1047 60.5404 90.6993C60.1367 90.2939 59.8165 89.8125 59.5982 89.2827C59.3799 88.7529 59.2678 88.1851 59.2683 87.6118C59.2677 87.0384 59.3798 86.4706 59.5981 85.9408C59.8163 85.4109 60.1365 84.9295 60.5403 84.5241C60.9441 84.1186 61.4235 83.7971 61.9512 83.5779C62.4789 83.3587 63.0445 83.2462 63.6156 83.2467C64.1866 83.2462 64.7521 83.3587 65.2798 83.5779C65.8074 83.797 66.2869 84.1185 66.6907 84.5239C67.0944 84.9293 67.4146 85.4107 67.6329 85.9405C67.8512 86.4703 67.9633 87.0381 67.9628 87.6114C67.9633 88.1847 67.8512 88.7525 67.6329 89.2823C67.4146 89.8121 67.0944 90.2935 66.6907 90.6989C66.2869 91.1043 65.8074 91.4258 65.2798 91.6449C64.7521 91.8641 64.1866 91.977 63.6156 91.9765Z" fill="url(#paint1_linear_16_51)"/>
</g>
<defs>
<linearGradient id="paint0_linear_16_51" x1="958.643" y1="896.132" x2="5921.53" y2="5789.85" gradientUnits="userSpaceOnUse">
<stop stop-color="#387EB8"/>
<stop offset="1" stop-color="#366994"/>
</linearGradient>
<linearGradient id="paint1_linear_16_51" x1="1440.75" y1="1556.99" x2="6769.32" y2="6574.12" gradientUnits="userSpaceOnUse">
<stop stop-color="#FFE052"/>
<stop offset="1" stop-color="#FFC331"/>
</linearGradient>
<clipPath id="clip0_16_51">
<rect width="100" height="100" fill="white"/>
</clipPath>
</defs>
</svg>
