<svg width="36" height="36" viewBox="0 0 36 36" fill="none" xmlns="http://www.w3.org/2000/svg">
<path d="M17.9999 15.975C19.4445 15.975 20.6155 14.8039 20.6155 13.3594C20.6155 11.9148 19.4445 10.7437 17.9999 10.7437C16.5553 10.7437 15.3843 11.9148 15.3843 13.3594C15.3843 14.8039 16.5553 15.975 17.9999 15.975Z" fill="#61DAFB"/>
<path d="M18 22.9781C20.0531 24.975 22.0781 26.1563 23.7093 26.1563C24.2437 26.1563 24.75 26.0437 25.1718 25.7906C26.6343 24.9469 27.1687 22.8375 26.6625 19.8281C26.5781 19.2937 26.4656 18.7594 26.325 18.1969C26.8875 18.0281 27.3937 17.8594 27.9 17.6906C30.7406 16.5937 32.3156 15.075 32.3156 13.4156C32.3156 11.7281 30.7406 10.2094 27.9 9.14062C27.3937 8.94375 26.8875 8.775 26.325 8.63437C26.4656 8.07187 26.5781 7.5375 26.6625 7.00312C27.1406 3.9375 26.6062 1.8 25.1437 0.956247C24.7218 0.703122 24.2156 0.590622 23.6812 0.590622C22.0781 0.590622 20.025 1.77187 17.9718 3.76875C15.9468 1.77187 13.9218 0.590622 12.2906 0.590622C11.7562 0.590622 11.25 0.703122 10.8281 0.956247C9.36558 1.8 8.8312 3.90937 9.33745 6.91875C9.42183 7.45312 9.53433 7.9875 9.67495 8.55C9.11245 8.71875 8.6062 8.8875 8.09995 9.05625C5.25933 10.1531 3.68433 11.6719 3.68433 13.3312C3.68433 15.0187 5.25933 16.5375 8.09995 17.6062C8.6062 17.8031 9.11245 17.9719 9.67495 18.1125C9.53433 18.675 9.42183 19.2094 9.33745 19.7437C8.85933 22.7531 9.3937 24.8906 10.8281 25.7063C11.25 25.9594 11.7562 26.0719 12.2906 26.0719C13.9218 26.1281 15.9468 24.9469 18 22.9781ZM16.425 19.1812C16.9312 19.2094 17.4656 19.2094 18 19.2094C18.5343 19.2094 19.0687 19.2094 19.575 19.1812C19.0687 19.8562 18.5343 20.475 18 21.0656C17.4656 20.475 16.9312 19.8562 16.425 19.1812ZM12.9375 16.2844C13.2187 16.7625 13.4718 17.2125 13.7812 17.6625C12.9093 17.55 12.0937 17.4094 11.3062 17.2406C11.5593 16.4812 11.8406 15.6937 12.1781 14.9062C12.4031 15.3562 12.6562 15.8344 12.9375 16.2844ZM11.3062 9.50625C12.0937 9.3375 12.9093 9.19687 13.7812 9.08437C13.5 9.53437 13.2187 9.98437 12.9375 10.4625C12.6562 10.9406 12.4031 11.3906 12.1781 11.8687C11.8125 11.0531 11.5312 10.2656 11.3062 9.50625ZM12.8531 13.3594C13.2187 12.6 13.6125 11.8406 14.0625 11.0812C14.4843 10.35 14.9625 9.61875 15.4406 8.8875C16.2843 8.83125 17.1281 8.80312 18 8.80312C18.9 8.80312 19.7437 8.83125 20.5593 8.8875C21.0656 9.61875 21.5156 10.35 21.9375 11.0812C22.3875 11.8406 22.7812 12.6 23.1468 13.3594C22.7812 14.1187 22.3875 14.8781 21.9375 15.6375C21.5156 16.3687 21.0375 17.1 20.5593 17.8312C19.7156 17.8875 18.8718 17.9156 18 17.9156C17.1 17.9156 16.2562 17.8875 15.4406 17.8312C14.9343 17.1 14.4843 16.3687 14.0625 15.6375C13.6125 14.8781 13.2187 14.1187 12.8531 13.3594ZM23.85 11.8406L23.0906 10.4344C22.8093 9.95625 22.5562 9.50625 22.2468 9.05625C23.1187 9.16875 23.9343 9.30937 24.7218 9.47812C24.4687 10.2656 24.1875 11.0531 23.85 11.8406ZM23.85 14.8781C24.1875 15.6656 24.4687 16.4531 24.7218 17.2125C23.9343 17.3812 23.1187 17.5219 22.2468 17.6344C22.5281 17.1844 22.8093 16.7344 23.0906 16.2562C23.3437 15.8344 23.5968 15.3562 23.85 14.8781ZM24.4968 24.6375C24.2718 24.7781 23.9906 24.8344 23.6812 24.8344C22.3031 24.8344 20.5875 23.7094 18.9 22.0219C19.7156 21.15 20.5031 20.1656 21.2906 19.0688C22.6125 18.9563 23.8781 18.7594 25.0593 18.4781C25.2 18.9844 25.2843 19.4906 25.3687 19.9969C25.7625 22.3875 25.4531 24.1031 24.4968 24.6375ZM25.9593 9.81562C29.1093 10.7156 30.9937 12.0937 30.9937 13.3594C30.9937 14.4562 29.7 15.5531 27.4218 16.425C26.9718 16.5937 26.4656 16.7625 25.9593 16.9031C25.5937 15.75 25.1437 14.5687 24.5812 13.3594C25.1437 12.15 25.6218 10.9687 25.9593 9.81562ZM23.7093 1.88437C24.0187 1.88437 24.2718 1.94062 24.525 2.08125C25.4531 2.61562 25.7906 4.30312 25.3968 6.72187C25.3125 7.2 25.2 7.70625 25.0875 8.24062C23.9062 7.9875 22.6406 7.79062 21.3187 7.65C20.5593 6.55312 19.7437 5.56875 18.9281 4.69687C20.6156 3.0375 22.3312 1.88437 23.7093 1.88437ZM19.575 7.5375C19.0687 7.50937 18.5343 7.50937 18 7.50937C17.4656 7.50937 16.9312 7.50937 16.425 7.5375C16.9312 6.8625 17.4656 6.24375 18 5.65312C18.5343 6.24375 19.0687 6.89062 19.575 7.5375ZM11.5031 2.08125C11.7281 1.94062 12.0093 1.88437 12.3187 1.88437C13.6968 1.88437 15.4125 3.00937 17.1 4.69687C16.2843 5.56875 15.4968 6.55312 14.7093 7.65C13.3875 7.7625 12.1218 7.95937 10.9406 8.24062C10.8 7.73437 10.7156 7.22812 10.6312 6.72187C10.2375 4.33125 10.5468 2.64375 11.5031 2.08125ZM10.0406 16.9031C6.89058 16.0031 5.0062 14.625 5.0062 13.3594C5.0062 12.2625 6.29995 11.1656 8.57808 10.2937C9.02808 10.125 9.53433 9.95625 10.0406 9.81562C10.4062 10.9687 10.8562 12.15 11.4187 13.3594C10.8562 14.5687 10.3781 15.7781 10.0406 16.9031ZM10.6312 19.9969C10.7156 19.5187 10.8281 19.0125 10.9406 18.4781C12.1218 18.7312 13.3875 18.9281 14.7093 19.0688C15.4687 20.1656 16.2843 21.15 17.1 22.0219C15.4125 23.6813 13.6968 24.8344 12.3187 24.8344C12.0093 24.8344 11.7562 24.7781 11.5031 24.6375C10.5468 24.1031 10.2375 22.3875 10.6312 19.9969ZM9.44995 31.5844C10.0687 30.825 10.0968 29.9813 9.75933 29.1375C9.42183 28.2937 8.7187 27.9 7.84683 27.8719C6.8062 27.8437 5.73745 27.8719 4.69683 27.8719H4.49995V35.1563H5.3437V32.4H6.66558C6.83433 32.4 6.97495 32.4563 7.05933 32.5969L8.74683 35.2125C8.77495 35.2688 8.85933 35.3531 8.91558 35.3531H10.0125C9.33745 34.3125 8.69058 33.3281 8.01558 32.3156C8.6062 32.2313 9.11245 32.0344 9.44995 31.5844ZM5.3437 31.5281V28.7437H5.65308C6.29995 28.7437 6.97495 28.7156 7.62183 28.7719C8.3812 28.8 8.91558 29.3906 8.91558 30.15C8.91558 30.9094 8.29683 31.5 7.53745 31.5281C6.86245 31.5563 6.18745 31.5281 5.3437 31.5281ZM16.2281 31.8938C15.7781 29.925 13.9781 29.4188 12.6 30.0375C11.5312 30.5156 11.0531 31.4438 11.025 32.5969C10.9968 33.4688 11.25 34.2563 11.925 34.8469C12.6843 35.5219 13.6125 35.6063 14.5687 35.4375C15.1031 35.325 15.5812 35.0719 15.9468 34.6781C15.8062 34.4813 15.6656 34.2844 15.525 34.1156C14.7375 34.7906 13.8656 35.0156 12.9093 34.5656C12.2906 34.2563 11.9812 33.4969 11.925 32.9344H16.2843V32.5688C16.3125 32.3156 16.2843 32.0906 16.2281 31.8938ZM11.9812 32.3438C11.8968 31.5 12.7406 30.6 13.6687 30.6C14.7375 30.5719 15.4125 31.2188 15.4406 32.3438H11.9812ZM20.6156 29.8969C20.1937 29.8125 19.7437 29.7844 19.3218 29.8125C18.6468 29.8688 18.0562 30.1781 17.5781 30.6844C17.7187 30.8813 17.8312 31.0781 18 31.3031C18.0562 31.2469 18.1125 31.1906 18.1687 31.1625C18.6187 30.7406 19.1531 30.5156 19.8 30.5719C20.3062 30.6 20.7843 30.7687 20.925 31.275C21.0375 31.6687 21.0093 32.0906 21.0375 32.5125C20.9531 32.5125 20.925 32.4844 20.8968 32.4563C20.2218 31.8938 19.4625 31.7812 18.6468 31.9781C17.8875 32.175 17.4093 32.7656 17.3531 33.525C17.2968 34.3969 17.6906 35.0438 18.45 35.3531C18.9281 35.55 19.4625 35.55 19.9687 35.4375C20.3625 35.3531 20.5312 35.1281 21.0937 34.8188V35.1844H21.8812C21.8812 34.0594 21.9093 32.6813 21.8812 31.3875C21.8812 30.5719 21.4031 30.0656 20.6156 29.8969ZM21.0093 33.4406C20.9812 33.525 21.0093 33.6094 21.0093 33.6938C21.0093 34.2844 20.8687 34.4813 20.3062 34.7063C19.9125 34.8469 19.4906 34.9031 19.0687 34.7625C18.5906 34.6219 18.2531 34.2 18.2531 33.7219C18.225 33.2438 18.5343 32.7656 19.0125 32.625C19.6593 32.4 20.25 32.5406 20.7843 32.9344C20.9531 33.075 21.0656 33.2156 21.0093 33.4406ZM25.3968 30.6563C26.1281 30.4313 26.8031 30.5719 27.3093 31.1906L27.3937 31.2469C27.5906 31.0781 27.7593 30.9094 27.9843 30.7125C27.9 30.6281 27.8718 30.5719 27.8156 30.4875C27 29.6156 25.3968 29.5031 24.4125 30.2063C23.0343 31.2188 23.0625 33.1875 23.7375 34.2281C24.3843 35.2125 25.3125 35.55 26.4093 35.4094C27.0562 35.325 27.5906 35.0156 28.0125 34.4813C27.8156 34.3125 27.6187 34.1438 27.4218 33.9469C27.3656 34.0031 27.3375 34.0313 27.3093 34.0875C26.55 34.9313 25.2843 34.8469 24.6093 33.9469C24.2156 33.4125 24.1312 32.7938 24.2437 32.175C24.3 31.4719 24.6656 30.9094 25.3968 30.6563ZM31.2468 34.4813C31.1906 34.5094 31.1625 34.5375 31.1625 34.5375C30.9375 34.7063 30.7125 34.7344 30.4593 34.65C30.2062 34.5375 30.1781 34.3125 30.15 34.0875V30.8813C30.15 30.825 30.15 30.9375 30.1781 30.6563H31.2468V29.8125H30.1218V28.4063H29.2781V29.925H28.5468C28.4906 29.925 28.4062 29.9813 28.4062 30.0375C28.3781 30.2344 28.4062 30.375 28.4062 30.6563H29.3062V34.2563C29.3062 34.7063 29.4187 35.1 29.8125 35.325C30.2343 35.5781 31.05 35.5219 31.4156 35.2125C31.4718 35.1844 31.5 35.0719 31.5 35.0438C31.4156 34.875 31.3312 34.6781 31.2468 34.4813Z" fill="#61DAFB"/>
</svg>
