<svg width="42" height="41" viewBox="0 0 42 41" fill="none" xmlns="http://www.w3.org/2000/svg">
<g clip-path="url(#clip0_34_1544)">
<path d="M20.7966 18.136C22.4285 18.136 23.7514 16.813 23.7514 15.1811C23.7514 13.5492 22.4285 12.2263 20.7966 12.2263C19.1647 12.2263 17.8418 13.5492 17.8418 15.1811C17.8418 16.813 19.1647 18.136 20.7966 18.136Z" fill="#61DAFB"/>
<path d="M20.7966 26.0472C23.116 28.303 25.4036 29.6375 27.2464 29.6375C27.8501 29.6375 28.422 29.5104 28.8985 29.2244C30.5507 28.2713 31.1544 25.8883 30.5825 22.4887C30.4872 21.885 30.3601 21.2814 30.2012 20.6459C30.8367 20.4553 31.4086 20.2647 31.9805 20.074C35.1895 18.8349 36.9687 17.1192 36.9687 15.2446C36.9687 13.3383 35.1895 11.6226 31.9805 10.4152C31.4086 10.1928 30.8367 10.0022 30.2012 9.84334C30.3601 9.2079 30.4872 8.60422 30.5825 8.00055C31.1226 4.53737 30.5189 2.12268 28.8668 1.16951C28.3902 0.883559 27.8183 0.75647 27.2146 0.75647C25.4036 0.75647 23.0842 2.09091 20.7648 4.34674C18.4772 2.09091 16.1896 0.75647 14.3468 0.75647C13.7432 0.75647 13.1713 0.883559 12.6947 1.16951C11.0425 2.12268 10.4388 4.5056 11.0107 7.90523C11.1061 8.50891 11.2331 9.11258 11.392 9.74803C10.7566 9.93866 10.1847 10.1293 9.61276 10.3199C6.40376 11.559 4.62451 13.2748 4.62451 15.1493C4.62451 17.0557 6.40376 18.7714 9.61276 19.9787C10.1847 20.2011 10.7566 20.3917 11.392 20.5506C11.2331 21.1861 11.1061 21.7897 11.0107 22.3934C10.4706 25.793 11.0743 28.2077 12.6947 29.1291C13.1713 29.4151 13.7432 29.5422 14.3468 29.5422C16.1896 29.6057 18.4772 28.2713 20.7966 26.0472ZM19.0174 21.7579C19.5893 21.7897 20.1929 21.7897 20.7966 21.7897C21.4003 21.7897 22.004 21.7897 22.5759 21.7579C22.004 22.5205 21.4003 23.2195 20.7966 23.8867C20.1929 23.2195 19.5893 22.5205 19.0174 21.7579ZM15.0776 18.4854C15.3953 19.0255 15.6813 19.5339 16.0308 20.0422C15.0458 19.9152 14.1244 19.7563 13.2348 19.5657C13.5208 18.7078 13.8385 17.8182 14.2197 16.9286C14.4739 17.4369 14.7599 17.977 15.0776 18.4854ZM13.2348 10.8283C14.1244 10.6377 15.0458 10.4788 16.0308 10.3517C15.713 10.8601 15.3953 11.3684 15.0776 11.9085C14.7599 12.4487 14.4739 12.957 14.2197 13.4972C13.8067 12.5758 13.489 11.6861 13.2348 10.8283ZM14.9823 15.1811C15.3953 14.3232 15.8401 13.4654 16.3485 12.6075C16.8251 11.7815 17.3652 10.9554 17.9053 10.1293C18.8585 10.0657 19.8117 10.034 20.7966 10.034C21.8133 10.034 22.7665 10.0657 23.6879 10.1293C24.2598 10.9554 24.7681 11.7815 25.2447 12.6075C25.7531 13.4654 26.1979 14.3232 26.6109 15.1811C26.1979 16.0389 25.7531 16.8968 25.2447 17.7546C24.7681 18.5807 24.228 19.4068 23.6879 20.2329C22.7347 20.2964 21.7815 20.3282 20.7966 20.3282C19.7799 20.3282 18.8267 20.2964 17.9053 20.2329C17.3334 19.4068 16.8251 18.5807 16.3485 17.7546C15.8401 16.8968 15.3953 16.0389 14.9823 15.1811ZM27.4052 13.4654L26.5474 11.8768C26.2297 11.3366 25.9437 10.8283 25.5942 10.3199C26.5792 10.447 27.5006 10.6059 28.3902 10.7965C28.1042 11.6861 27.7865 12.5758 27.4052 13.4654ZM27.4052 16.8968C27.7865 17.7864 28.1042 18.676 28.3902 19.5339C27.5006 19.7245 26.5792 19.8834 25.5942 20.0105C25.9119 19.5021 26.2297 18.9938 26.5474 18.4536C26.8333 17.977 27.1193 17.4369 27.4052 16.8968ZM28.136 27.9218C27.8818 28.0806 27.5641 28.1442 27.2146 28.1442C25.6578 28.1442 23.7197 26.8733 21.8133 24.967C22.7347 23.982 23.6243 22.87 24.514 21.6309C26.0073 21.5038 27.437 21.2814 28.7715 20.9636C28.9303 21.5355 29.0256 22.1074 29.1209 22.6793C29.5658 25.38 29.2163 27.3181 28.136 27.9218ZM29.7882 11.1778C33.3467 12.1945 35.4754 13.7513 35.4754 15.1811C35.4754 16.4202 34.0139 17.6593 31.4403 18.6443C30.932 18.8349 30.3601 19.0255 29.7882 19.1844C29.3751 17.8817 28.8668 16.5473 28.2313 15.1811C28.8668 13.8149 29.4069 12.4804 29.7882 11.1778ZM27.2464 2.21799C27.5959 2.21799 27.8818 2.28154 28.1678 2.4404C29.2163 3.04407 29.5975 4.95041 29.1527 7.68283C29.0574 8.22296 28.9303 8.79486 28.8032 9.39853C27.4688 9.11258 26.039 8.89017 24.5457 8.73131C23.6879 7.49219 22.7665 6.38016 21.8451 5.39522C23.7514 3.52066 25.6895 2.21799 27.2464 2.21799ZM22.5759 8.60422C22.004 8.57245 21.4003 8.57245 20.7966 8.57245C20.1929 8.57245 19.5893 8.57245 19.0174 8.60422C19.5893 7.84169 20.1929 7.1427 20.7966 6.47548C21.4003 7.1427 22.004 7.87346 22.5759 8.60422ZM13.4572 2.4404C13.7114 2.28154 14.0291 2.21799 14.3786 2.21799C15.9354 2.21799 17.8736 3.48889 19.7799 5.39522C18.8585 6.38016 17.9689 7.49219 17.0792 8.73131C15.586 8.8584 14.1562 9.08081 12.8218 9.39853C12.6629 8.82663 12.5676 8.25473 12.4723 7.68283C12.0275 4.98218 12.377 3.07585 13.4572 2.4404ZM11.805 19.1844C8.24655 18.1677 6.11781 16.6108 6.11781 15.1811C6.11781 13.942 7.57933 12.7028 10.1529 11.7179C10.6612 11.5273 11.2331 11.3366 11.805 11.1778C12.2181 12.4804 12.7264 13.8149 13.3619 15.1811C12.7264 16.5473 12.1863 17.9135 11.805 19.1844ZM12.4723 22.6793C12.5676 22.1392 12.6947 21.5673 12.8218 20.9636C14.1562 21.2496 15.586 21.472 17.0792 21.6309C17.9371 22.87 18.8585 23.982 19.7799 24.967C17.8736 26.8415 15.9354 28.1442 14.3786 28.1442C14.0291 28.1442 13.7432 28.0806 13.4572 27.9218C12.377 27.3181 12.0275 25.38 12.4723 22.6793ZM11.1378 35.7695C11.8368 34.9117 11.8686 33.9585 11.4873 33.0053C11.1061 32.0522 10.3118 31.6074 9.32681 31.5756C8.15124 31.5438 6.94389 31.5756 5.76831 31.5756H5.54591V39.8046H6.49908V36.6909H7.99237C8.18301 36.6909 8.34187 36.7545 8.43719 36.9133L10.3435 39.8682C10.3753 39.9317 10.4706 40.027 10.5342 40.027H11.7733C11.0107 38.8514 10.28 37.7394 9.51744 36.5956C10.1847 36.5003 10.7566 36.2779 11.1378 35.7695ZM6.49908 35.706V32.5605H6.84857C7.57933 32.5605 8.34187 32.5288 9.07263 32.5923C9.93048 32.6241 10.5342 33.2913 10.5342 34.1491C10.5342 35.007 9.83517 35.6742 8.97732 35.706C8.21478 35.7378 7.45225 35.706 6.49908 35.706ZM18.795 36.119C18.2866 33.895 16.2532 33.3231 14.6963 34.0221C13.489 34.5622 12.9489 35.6107 12.9171 36.9133C12.8853 37.8983 13.1713 38.7879 13.9338 39.4551C14.7916 40.2177 15.8401 40.313 16.9204 40.1223C17.5241 39.9952 18.0642 39.7093 18.4772 39.2645C18.3184 39.0421 18.1595 38.8197 18.0006 38.629C17.111 39.3916 16.1261 39.6457 15.0458 39.1374C14.3468 38.7879 13.9973 37.93 13.9338 37.2946H18.8585V36.8816C18.8903 36.5956 18.8585 36.3414 18.795 36.119ZM13.9973 36.6274C13.902 35.6742 14.8552 34.6575 15.9037 34.6575C17.111 34.6257 17.8736 35.3565 17.9053 36.6274H13.9973ZM23.7514 33.8632C23.2748 33.7679 22.7665 33.7361 22.2899 33.7679C21.5274 33.8314 20.8602 34.1809 20.32 34.7528C20.4789 34.9752 20.606 35.1976 20.7966 35.4518C20.8602 35.3883 20.9237 35.3247 20.9872 35.2929C21.4956 34.8164 22.0993 34.5622 22.83 34.6257C23.4019 34.6575 23.9421 34.8481 24.1009 35.42C24.228 35.8648 24.1962 36.3414 24.228 36.818C24.1327 36.818 24.1009 36.7862 24.0692 36.7545C23.3066 36.119 22.4488 35.9919 21.5274 36.2143C20.6695 36.4367 20.1294 37.104 20.0658 37.9618C20.0023 38.9468 20.4471 39.6775 21.305 40.027C21.8451 40.2494 22.4488 40.2494 23.0207 40.1223C23.4655 40.027 23.6561 39.7728 24.2916 39.4233V39.8364H25.1812C25.1812 38.5655 25.213 37.0086 25.1812 35.5471C25.1812 34.6257 24.6411 34.0538 23.7514 33.8632ZM24.1962 37.8665C24.1645 37.9618 24.1962 38.0571 24.1962 38.1525C24.1962 38.8197 24.0374 39.0421 23.4019 39.2963C22.9571 39.4551 22.4805 39.5187 22.004 39.3598C21.4638 39.2009 21.0826 38.7244 21.0826 38.1842C21.0508 37.6441 21.4003 37.104 21.9404 36.9451C22.6712 36.6909 23.3384 36.8498 23.9421 37.2946C24.1327 37.4535 24.2598 37.6123 24.1962 37.8665ZM29.1527 34.721C29.9788 34.4669 30.7413 34.6257 31.3132 35.3247L31.4086 35.3883C31.631 35.1976 31.8216 35.007 32.0758 34.7846C31.9805 34.6893 31.9487 34.6257 31.8851 34.5304C30.9637 33.5455 29.1527 33.4184 28.0407 34.2127C26.4839 35.3565 26.5156 37.5805 27.2782 38.7561C28.0089 39.8682 29.0574 40.2494 30.2965 40.0906C31.0273 39.9952 31.631 39.6457 32.1075 39.0421C31.8851 38.8514 31.6627 38.6608 31.4403 38.4384C31.3768 38.5019 31.345 38.5337 31.3132 38.5973C30.4554 39.5504 29.0256 39.4551 28.2631 38.4384C27.8183 37.8347 27.723 37.1357 27.8501 36.4367C27.9136 35.6424 28.3266 35.007 29.1527 34.721ZM35.7614 39.0421C35.6978 39.0738 35.666 39.1056 35.666 39.1056C35.4119 39.2963 35.1577 39.328 34.8717 39.2327C34.5858 39.1056 34.554 38.8514 34.5222 38.5973V34.9752C34.5222 34.9117 34.5222 35.0388 34.554 34.721H35.7614V33.7679H34.4905V32.1793H33.5373V33.895H32.7112C32.6477 33.895 32.5524 33.9585 32.5524 34.0221C32.5206 34.2445 32.5524 34.4033 32.5524 34.721H33.5691V38.7879C33.5691 39.2963 33.6962 39.7411 34.141 39.9952C34.6176 40.2812 35.539 40.2176 35.952 39.8682C36.0155 39.8364 36.0473 39.7093 36.0473 39.6775C35.952 39.4869 35.8567 39.2645 35.7614 39.0421Z" fill="#61DAFB"/>
</g>
<defs>
<clipPath id="clip0_34_1544">
<rect width="40.6685" height="40.6685" fill="white" transform="translate(0.462402 0.0892334)"/>
</clipPath>
</defs>
</svg>