<svg width="42" height="28" viewBox="0 0 42 28" fill="none" xmlns="http://www.w3.org/2000/svg">
<path d="M20.7743 0.342651C15.3519 0.342651 11.9628 3.32501 10.6072 9.28973C12.6406 6.30737 15.013 5.18898 17.7242 5.93457C19.2711 6.35997 20.3768 7.59442 21.6006 8.96092C23.5942 11.1869 25.9017 13.7633 30.9415 13.7633C36.3639 13.7633 39.753 10.7809 41.1086 4.81619C39.0752 7.79855 36.7028 8.91693 33.9916 8.17134C32.4447 7.74594 31.339 6.51149 30.1152 5.14499C28.1215 2.919 25.8141 0.342651 20.7743 0.342651ZM10.6072 13.7633C5.18472 13.7633 1.79568 16.7456 0.440063 22.7103C2.47349 19.728 4.84582 18.6096 7.55706 19.3552C9.10397 19.7806 10.2096 21.015 11.4334 22.3815C13.4271 24.6075 15.7345 27.1839 20.7743 27.1839C26.1968 27.1839 29.5858 24.2015 30.9415 18.2368C28.908 21.2192 26.5357 22.3375 23.8245 21.592C22.2776 21.1666 21.1719 19.9321 19.9481 18.5656C17.9544 16.3396 15.647 13.7633 10.6072 13.7633Z" fill="url(#paint0_linear_34_1578)"/>
<defs>
<linearGradient id="paint0_linear_34_1578" x1="-288.758" y1="1323.08" x2="9865.44" y2="4524.85" gradientUnits="userSpaceOnUse">
<stop stop-color="#2298BD"/>
<stop offset="1" stop-color="#0ED7B5"/>
</linearGradient>
</defs>
</svg>
