<svg width="41" height="38" viewBox="0 0 41 38" fill="none" xmlns="http://www.w3.org/2000/svg">
<g clip-path="url(#clip0_34_1548)">
<path d="M11.2421 35.9777L1.60242 1.94067L39.7292 11.4471" fill="white"/>
<path d="M15.9508 21.3485L18.3591 29.862" stroke="black" stroke-width="7" stroke-miterlimit="10"/>
<path d="M25.4634 23.7406L15.9508 21.3485" stroke="black" stroke-width="7" stroke-miterlimit="10"/>
<path d="M18.3591 29.862L25.4634 23.7406" stroke="black" stroke-width="7" stroke-miterlimit="10"/>
<path d="M18.3591 29.862L8.84644 27.4698" stroke="black" stroke-width="7" stroke-miterlimit="10"/>
<path d="M8.84644 27.4698L11.2548 35.989L18.3591 29.862" stroke="black" stroke-width="7" stroke-miterlimit="10"/>
<path d="M8.84644 27.4699L15.9507 21.3485" stroke="black" stroke-width="7" stroke-miterlimit="10"/>
<path d="M15.9508 21.3484L23.0614 15.2214" stroke="black" stroke-width="7" stroke-miterlimit="10"/>
<path d="M23.0614 15.2215L30.1657 9.1001" stroke="black" stroke-width="7" stroke-miterlimit="10"/>
<path d="M20.6531 6.70801L23.0614 15.2215" stroke="black" stroke-width="7" stroke-miterlimit="10"/>
<path d="M23.0615 15.2214L13.5425 12.835" stroke="black" stroke-width="7" stroke-miterlimit="10"/>
<path d="M13.5425 12.835L15.9508 21.3485" stroke="black" stroke-width="7" stroke-miterlimit="10"/>
<path d="M15.9507 21.3484L6.43811 18.9563" stroke="black" stroke-width="7" stroke-miterlimit="10"/>
<path d="M6.43811 18.9563L8.84645 27.4698" stroke="black" stroke-width="7" stroke-miterlimit="10"/>
<path d="M4.02979 10.4429L6.43812 18.9564" stroke="black" stroke-width="7" stroke-miterlimit="10"/>
<path d="M13.5424 12.835L4.02979 10.4429" stroke="black" stroke-width="7" stroke-miterlimit="10"/>
<path d="M6.43811 18.9563L13.5424 12.835" stroke="black" stroke-width="7" stroke-miterlimit="10"/>
<path d="M13.5425 12.8294L20.6531 6.70801" stroke="black" stroke-width="7" stroke-miterlimit="10"/>
<path d="M20.653 6.70792L11.134 4.3158" stroke="black" stroke-width="7" stroke-miterlimit="10"/>
<path d="M11.134 4.3158L13.5424 12.8293" stroke="black" stroke-width="7" stroke-miterlimit="10"/>
<path d="M4.0298 10.4428L1.62146 1.92371L11.1341 4.31583" stroke="black" stroke-width="7" stroke-miterlimit="10"/>
<path d="M4.02979 10.4428L11.1341 4.3158" stroke="black" stroke-width="7" stroke-miterlimit="10"/>
<path d="M32.574 17.6136L39.6783 11.4922L30.1656 9.1001" stroke="black" stroke-width="7" stroke-miterlimit="10"/>
<path d="M30.1656 9.1001L32.574 17.6136" stroke="black" stroke-width="7" stroke-miterlimit="10"/>
<path d="M32.574 17.6136L23.0614 15.2214" stroke="black" stroke-width="7" stroke-miterlimit="10"/>
<path d="M23.0614 15.2214L25.4634 23.7406" stroke="black" stroke-width="7" stroke-miterlimit="10"/>
<path d="M25.4634 23.7405L32.574 17.6135" stroke="black" stroke-width="7" stroke-miterlimit="10"/>
<path d="M30.1657 9.10014L20.6531 6.70801" stroke="black" stroke-width="7" stroke-miterlimit="10"/>
</g>
<defs>
<clipPath id="clip0_34_1548">
<rect width="40.6685" height="36.1076" fill="white" transform="translate(0.331543 0.902588)"/>
</clipPath>
</defs>
</svg>